<svg width="28" height="21" viewBox="0 0 28 21" fill="none" xmlns="http://www.w3.org/2000/svg">
  <g clip-path="url(#clip0_1_3)">
    <mask id="path-1-inside-1_1_3" fill="white">
      <path
        d="M12.6 9.23224C12.6 9.48386 12.6 9.73547 12.6 10.0064C12.6 10.2774 12.6 10.529 12.6 10.8C12.559 11.059 12.4882 11.3124 12.389 11.5548C12.3379 11.7975 12.254 12.032 12.1397 12.2516L12.2931 12.6193C12.3534 12.7288 12.3986 12.846 12.4274 12.9677C12.4274 13.5097 12.4274 13.9355 12.4274 14.2839C12.4274 14.6322 12.4274 14.9226 12.3123 15.1742L12.1397 15.9097C12.0794 16.1778 12.0346 16.4492 12.0055 16.7226L12.389 16.1613V17.9806C12.374 18.1933 12.374 18.4067 12.389 18.6193C12.389 18.8645 12.389 19.1355 12.389 19.4322C12.389 19.7226 12.389 19.9935 12.389 20.2645V20.9419H11.737L10.4712 19.9935C10.4881 19.9641 10.4969 19.9307 10.4969 19.8968C10.4969 19.8628 10.4881 19.8294 10.4712 19.8L10.2219 19.6258L9.95342 19.4322C9.91619 19.4022 9.88641 19.3638 9.86644 19.3202C9.84646 19.2765 9.83685 19.2287 9.83835 19.1806C9.60821 18.9871 9.39725 18.7935 9.16711 18.5613C8.93698 18.329 8.68766 18.1161 8.43835 17.9032C8.19578 17.6867 7.93953 17.4862 7.67122 17.3032C7.43445 17.1341 7.17649 16.9974 6.9041 16.8968L7.26848 16.6645C7.2369 16.5784 7.18831 16.4997 7.12568 16.4332C7.06304 16.3667 6.98765 16.3137 6.9041 16.2774C6.76252 16.2061 6.62771 16.1219 6.50136 16.0258C5.52448 15.4138 4.62871 14.6788 3.83561 13.8387C3.67123 13.6683 3.53523 13.4722 3.43287 13.2581C3.38177 13.1446 3.30143 13.047 3.20023 12.9755C3.09903 12.904 2.98068 12.8612 2.85753 12.8516L2.45479 12.4064C2.31964 12.2725 2.22062 12.1059 2.16711 11.9226C2.0988 11.7578 2.00132 11.6069 1.87944 11.4774C1.89844 11.4209 1.89844 11.3597 1.87944 11.3032L1.70684 11.4V11.5161L1.51506 11.3419C1.27302 11.2959 1.05154 11.174 0.882183 10.9935C0.882183 10.9935 0.882183 10.8387 1.09314 10.8H0.594512L0.383553 10.9161C0.392525 10.8779 0.392525 10.8382 0.383553 10.8L0.0575256 10.471V10.3161L1.09314 9.09676L2.12876 7.89676C2.28163 7.87811 2.43616 7.87811 2.58903 7.89676C2.67126 7.90196 2.75297 7.8803 2.82205 7.83498C2.89113 7.78966 2.94392 7.7231 2.97259 7.64515L2.79999 7.08386V6.92902C2.81461 6.88506 2.81461 6.83749 2.79999 6.79353L3.18355 6.4645L3.95068 5.80644L4.87122 4.97418L5.77259 4.08386C6.06027 3.79353 6.2904 3.52257 6.50136 3.27095C6.68675 3.12067 6.84283 2.9369 6.96163 2.72902L7.88218 2.0516H8.15068H8.39999C8.4651 2.05666 8.53029 2.04297 8.58799 2.01214C8.6457 1.98131 8.69356 1.93459 8.72602 1.87741C8.75687 1.7568 8.75687 1.63027 8.72602 1.50966C8.7443 1.36833 8.7443 1.22519 8.72602 1.08386C8.66848 0.967729 8.55342 0.793535 8.55342 0.793535C8.90499 0.643303 9.1957 0.377204 9.37807 0.0386963L11.6411 1.97418L11.3918 2.28386C11.1222 2.43282 10.8765 2.62206 10.663 2.84515C10.3753 3.13547 10.0685 3.44515 9.76163 3.81289L8.7452 4.95483L7.74794 6.07741C7.45079 6.37886 7.13705 6.66318 6.80821 6.92902C6.58564 7.11731 6.31119 7.23215 6.02191 7.25805L6.23287 7.81934C5.85846 7.98226 5.52443 8.22682 5.25479 8.53547C5.0813 8.70975 4.9386 8.91267 4.83287 9.13547C4.78439 9.281 4.74594 9.42974 4.7178 9.58063C4.67621 9.74348 4.58977 9.89112 4.46848 10.0064V10.1226C4.45082 10.1793 4.45082 10.2401 4.46848 10.2968L4.52602 10.471H4.94794L4.83287 11.3613H5.21643C5.34868 11.33 5.47725 11.2845 5.59999 11.2258C6.2904 11.8258 6.96163 12.4451 7.5178 13.0451C8.12679 13.665 8.7669 14.2528 9.43561 14.8064V11.6322C9.55068 11.6322 9.60821 11.6322 9.60821 11.3806C9.58129 11.2661 9.58129 11.1468 9.60821 11.0322V10.9161C9.55122 10.7744 9.51878 10.6238 9.51232 10.471C9.38169 10.0958 9.29793 9.70572 9.263 9.30966H12.6V9.23224ZM2.79999 12.7161C2.83423 12.6936 2.87421 12.6817 2.91506 12.6817C2.95591 12.6817 2.99589 12.6936 3.03013 12.7161C2.98529 12.6299 2.92701 12.5515 2.85753 12.4839C2.7691 12.4353 2.67048 12.4088 2.56985 12.4064L2.79999 12.7161ZM9.58903 11.6903C9.6248 11.6859 9.65905 11.6732 9.68903 11.653C9.71901 11.6328 9.74388 11.6058 9.76163 11.5742C9.82299 11.5186 9.87483 11.4532 9.91506 11.3806C9.93212 11.3107 9.93212 11.2377 9.91506 11.1677C9.92523 11.1466 9.93052 11.1235 9.93052 11.1C9.93052 11.0765 9.92523 11.0534 9.91506 11.0322C9.91506 11.0322 9.91506 11.0322 9.91506 11.129C9.9197 11.1935 9.9197 11.2581 9.91506 11.3226C9.92557 11.3931 9.92557 11.4649 9.91506 11.5355C9.83935 11.5983 9.75546 11.6504 9.66574 11.6903H9.58903Z" />
    </mask>
    <path
      d="M12.6 9.23224C12.6 9.48386 12.6 9.73547 12.6 10.0064C12.6 10.2774 12.6 10.529 12.6 10.8C12.559 11.059 12.4882 11.3124 12.389 11.5548C12.3379 11.7975 12.254 12.032 12.1397 12.2516L12.2931 12.6193C12.3534 12.7288 12.3986 12.846 12.4274 12.9677C12.4274 13.5097 12.4274 13.9355 12.4274 14.2839C12.4274 14.6322 12.4274 14.9226 12.3123 15.1742L12.1397 15.9097C12.0794 16.1778 12.0346 16.4492 12.0055 16.7226L12.389 16.1613V17.9806C12.374 18.1933 12.374 18.4067 12.389 18.6193C12.389 18.8645 12.389 19.1355 12.389 19.4322C12.389 19.7226 12.389 19.9935 12.389 20.2645V20.9419H11.737L10.4712 19.9935C10.4881 19.9641 10.4969 19.9307 10.4969 19.8968C10.4969 19.8628 10.4881 19.8294 10.4712 19.8L10.2219 19.6258L9.95342 19.4322C9.91619 19.4022 9.88641 19.3638 9.86644 19.3202C9.84646 19.2765 9.83685 19.2287 9.83835 19.1806C9.60821 18.9871 9.39725 18.7935 9.16711 18.5613C8.93698 18.329 8.68766 18.1161 8.43835 17.9032C8.19578 17.6867 7.93953 17.4862 7.67122 17.3032C7.43445 17.1341 7.17649 16.9974 6.9041 16.8968L7.26848 16.6645C7.2369 16.5784 7.18831 16.4997 7.12568 16.4332C7.06304 16.3667 6.98765 16.3137 6.9041 16.2774C6.76252 16.2061 6.62771 16.1219 6.50136 16.0258C5.52448 15.4138 4.62871 14.6788 3.83561 13.8387C3.67123 13.6683 3.53523 13.4722 3.43287 13.2581C3.38177 13.1446 3.30143 13.047 3.20023 12.9755C3.09903 12.904 2.98068 12.8612 2.85753 12.8516L2.45479 12.4064C2.31964 12.2725 2.22062 12.1059 2.16711 11.9226C2.0988 11.7578 2.00132 11.6069 1.87944 11.4774C1.89844 11.4209 1.89844 11.3597 1.87944 11.3032L1.70684 11.4V11.5161L1.51506 11.3419C1.27302 11.2959 1.05154 11.174 0.882183 10.9935C0.882183 10.9935 0.882183 10.8387 1.09314 10.8H0.594512L0.383553 10.9161C0.392525 10.8779 0.392525 10.8382 0.383553 10.8L0.0575256 10.471V10.3161L1.09314 9.09676L2.12876 7.89676C2.28163 7.87811 2.43616 7.87811 2.58903 7.89676C2.67126 7.90196 2.75297 7.8803 2.82205 7.83498C2.89113 7.78966 2.94392 7.7231 2.97259 7.64515L2.79999 7.08386V6.92902C2.81461 6.88506 2.81461 6.83749 2.79999 6.79353L3.18355 6.4645L3.95068 5.80644L4.87122 4.97418L5.77259 4.08386C6.06027 3.79353 6.2904 3.52257 6.50136 3.27095C6.68675 3.12067 6.84283 2.9369 6.96163 2.72902L7.88218 2.0516H8.15068H8.39999C8.4651 2.05666 8.53029 2.04297 8.58799 2.01214C8.6457 1.98131 8.69356 1.93459 8.72602 1.87741C8.75687 1.7568 8.75687 1.63027 8.72602 1.50966C8.7443 1.36833 8.7443 1.22519 8.72602 1.08386C8.66848 0.967729 8.55342 0.793535 8.55342 0.793535C8.90499 0.643303 9.1957 0.377204 9.37807 0.0386963L11.6411 1.97418L11.3918 2.28386C11.1222 2.43282 10.8765 2.62206 10.663 2.84515C10.3753 3.13547 10.0685 3.44515 9.76163 3.81289L8.7452 4.95483L7.74794 6.07741C7.45079 6.37886 7.13705 6.66318 6.80821 6.92902C6.58564 7.11731 6.31119 7.23215 6.02191 7.25805L6.23287 7.81934C5.85846 7.98226 5.52443 8.22682 5.25479 8.53547C5.0813 8.70975 4.9386 8.91267 4.83287 9.13547C4.78439 9.281 4.74594 9.42974 4.7178 9.58063C4.67621 9.74348 4.58977 9.89112 4.46848 10.0064V10.1226C4.45082 10.1793 4.45082 10.2401 4.46848 10.2968L4.52602 10.471H4.94794L4.83287 11.3613H5.21643C5.34868 11.33 5.47725 11.2845 5.59999 11.2258C6.2904 11.8258 6.96163 12.4451 7.5178 13.0451C8.12679 13.665 8.7669 14.2528 9.43561 14.8064V11.6322C9.55068 11.6322 9.60821 11.6322 9.60821 11.3806C9.58129 11.2661 9.58129 11.1468 9.60821 11.0322V10.9161C9.55122 10.7744 9.51878 10.6238 9.51232 10.471C9.38169 10.0958 9.29793 9.70572 9.263 9.30966H12.6V9.23224ZM2.79999 12.7161C2.83423 12.6936 2.87421 12.6817 2.91506 12.6817C2.95591 12.6817 2.99589 12.6936 3.03013 12.7161C2.98529 12.6299 2.92701 12.5515 2.85753 12.4839C2.7691 12.4353 2.67048 12.4088 2.56985 12.4064L2.79999 12.7161ZM9.58903 11.6903C9.6248 11.6859 9.65905 11.6732 9.68903 11.653C9.71901 11.6328 9.74388 11.6058 9.76163 11.5742C9.82299 11.5186 9.87483 11.4532 9.91506 11.3806C9.93212 11.3107 9.93212 11.2377 9.91506 11.1677C9.92523 11.1466 9.93052 11.1235 9.93052 11.1C9.93052 11.0765 9.92523 11.0534 9.91506 11.0322C9.91506 11.0322 9.91506 11.0322 9.91506 11.129C9.9197 11.1935 9.9197 11.2581 9.91506 11.3226C9.92557 11.3931 9.92557 11.4649 9.91506 11.5355C9.83935 11.5983 9.75546 11.6504 9.66574 11.6903H9.58903Z"
      fill="url(#paint0_linear_1_3)" stroke="url(#paint1_linear_1_3)" stroke-width="0.6"
      mask="url(#path-1-inside-1_1_3)" />
    <mask id="path-2-inside-2_1_3" fill="white">
      <path
        d="M28.0192 1.12258C28.0192 1.66452 28.0192 2.22581 28.0192 2.7871C28.0192 3.34839 28.0192 3.89032 28.0192 4.43226C27.8916 4.65586 27.8254 4.90974 27.8274 5.16774C27.8184 5.20592 27.8184 5.24569 27.8274 5.28387C27.8687 5.37726 27.9008 5.47449 27.9233 5.57419C27.9233 6.09677 27.9233 6.61936 27.9233 7.14194V8.69032C27.8282 8.88417 27.7696 9.0942 27.7507 9.30968C27.7322 9.52863 27.7322 9.74878 27.7507 9.96774C27.7507 10.2194 27.7507 10.471 27.7507 10.7226V11.671V12.329V13.8C27.7139 13.9782 27.7074 14.1615 27.7315 14.3419C27.7363 14.4257 27.7363 14.5097 27.7315 14.5935C27.7315 14.5935 27.7315 14.7097 27.5973 14.7097C27.5973 15.3484 27.5973 15.929 27.5973 16.4516C27.5973 16.9742 27.5973 17.4968 27.5973 18H27.463V18.271C27.3663 18.4223 27.3071 18.5949 27.2904 18.7742L27.1562 19.0065L27.2904 19.2C27.3243 19.3207 27.3831 19.4329 27.463 19.529C27.5274 19.615 27.6135 19.6818 27.7123 19.7226C27.7123 19.8387 27.7123 19.9548 27.7123 20.071C27.7123 20.1871 27.7123 20.2839 27.7123 20.4H24.5479V19.2C24.5479 18.7935 24.5479 18.4065 24.5479 18C24.5479 17.9032 24.663 17.8452 24.663 17.7871C24.7424 17.7164 24.7964 17.6211 24.8164 17.5161C24.8243 17.4324 24.8243 17.3482 24.8164 17.2645C24.8331 17.175 24.8331 17.0831 24.8164 16.9935C24.785 16.8815 24.7329 16.7765 24.663 16.6839V14.6516C24.663 14.2258 24.663 13.8 24.663 13.4323V12.7161C24.7445 12.6251 24.8094 12.5202 24.8548 12.4065V12C24.8768 11.9308 24.8768 11.8563 24.8548 11.7871C24.8654 11.7426 24.8654 11.6961 24.8548 11.6516C24.8418 11.5813 24.8418 11.5091 24.8548 11.4387L24.3178 11.6129L24.0685 11.7484C23.9792 11.814 23.9069 11.9003 23.8575 12H23.7425H23.6274H21.0384H20.2137H19.9452C19.7733 11.9012 19.5847 11.8355 19.389 11.8065L19.1589 11.671L18.8329 11.8839C18.8152 12.1352 18.8152 12.3874 18.8329 12.6387C18.8329 13.0258 18.8329 13.4516 18.8329 13.8774C18.8329 14.3032 18.8329 14.729 18.8329 15.0968C18.8329 15.4645 18.8329 15.7161 18.8329 15.7935C18.8022 15.9338 18.8022 16.0791 18.8329 16.2194C18.892 16.336 18.9627 16.4462 19.0438 16.5484V17.0516C19.0438 17.2065 19.0438 17.3806 19.0438 17.5355C18.9685 17.6371 18.9221 17.7576 18.9096 17.8839C18.819 18.1047 18.7733 18.3416 18.7753 18.5806C18.7727 18.8053 18.8117 19.0285 18.8904 19.2387C18.9812 19.432 19.0837 19.6194 19.1973 19.8V20.1484C19.188 20.2255 19.188 20.3035 19.1973 20.3806H18.1425C18.0764 20.3091 17.9888 20.2614 17.8932 20.2452H17.6247H17.4137C17.3527 20.1781 17.2786 20.1246 17.1961 20.088C17.1136 20.0513 17.0244 20.0324 16.9342 20.0323C16.8416 19.9965 16.7392 19.9965 16.6466 20.0323L16.4164 20.2258H15.726V16.9548C15.8021 16.8303 15.8541 16.6924 15.8795 16.5484C15.8881 16.4195 15.8881 16.2902 15.8795 16.1613V15.9677V15.8129V15.6581C15.8795 14.9742 15.8795 14.3935 15.8795 13.9161V12.5226C15.9758 12.3059 16.0466 12.0785 16.0904 11.8452C16.1094 11.6133 16.1094 11.3803 16.0904 11.1484V10.9548C16.0999 10.7808 16.0999 10.6063 16.0904 10.4323C16.1009 10.2647 16.1009 10.0966 16.0904 9.92903C16.0664 9.78745 16.0211 9.65039 15.9562 9.52258V9.09677C16.095 9.03129 16.2241 8.94661 16.3397 8.84516C16.4143 8.76302 16.4787 8.67203 16.5315 8.57419C16.564 8.44724 16.564 8.31405 16.5315 8.1871C16.5329 7.99842 16.4722 7.8146 16.3589 7.66452C16.2247 7.52903 16.2247 7.37419 16.0329 7.23871L15.8795 7.08387C15.8795 6.50323 15.8795 5.94194 15.8795 5.36129C15.8795 4.78065 15.8795 4.23871 15.8795 3.65806L16.0329 3.56129V3.29032C16.0437 3.20681 16.0437 3.12222 16.0329 3.03871V2.80645L16.2247 2.55484L15.937 2.1871L15.611 1.81936C15.611 1.81936 15.611 1.56774 15.611 1.35484C15.6226 1.1873 15.6226 1.01915 15.611 0.851614C16.189 0.850076 16.7662 0.895383 17.337 0.987097C17.8944 1.08161 18.4597 1.12051 19.0247 1.10323C19.0247 1.50968 19.0247 1.91613 19.0247 2.32258V3.54194C18.9497 3.60843 18.8963 3.69608 18.8712 3.79355C18.8712 3.90968 18.8712 4.00645 18.8712 4.08387C18.8648 4.12231 18.8648 4.16156 18.8712 4.2C18.8542 4.26992 18.8542 4.34298 18.8712 4.4129C18.8712 4.4129 18.8712 4.4129 18.8712 4.52903V4.62581C18.8888 4.72827 18.8888 4.83302 18.8712 4.93548V6.01935V6.13548V6.32903C18.8902 6.38551 18.8902 6.44674 18.8712 6.50323V6.69677C18.8712 6.79355 18.8712 6.89032 18.8712 6.94839C18.8712 6.94839 18.8712 7.04516 18.8712 7.14194C18.8712 7.31613 18.8712 7.54839 18.8712 7.83871C18.8712 8.12903 18.8712 8.45807 18.8712 8.80645C18.8712 9.15484 18.8712 9.13548 18.8712 9.11613C18.8712 9.09677 18.8712 9.11613 18.9863 8.98064L19.1206 8.80645C19.1206 8.80645 19.1206 8.80645 19.1206 9H19.6192L20.2904 8.72903C20.3636 8.81664 20.4474 8.89466 20.5397 8.96129C20.6499 9.02702 20.7761 9.06053 20.9041 9.05807H21.1726C21.3011 9.03237 21.4203 8.97219 21.5178 8.88387H21.9014H22.1507H22.4767H22.5918H22.937C23.0521 8.88387 23.1096 8.92258 23.1096 9C23.1096 9 23.1096 9 23.2055 9H23.3206H23.5507L23.7808 9.09677H23.9151C23.6338 9.09677 23.4995 9.09677 23.5123 9.09677C23.5123 9.09677 23.5123 9.19355 23.8 9.23226C24.0407 9.27927 24.2881 9.27927 24.5288 9.23226C24.868 9.18012 25.19 9.04745 25.4685 8.84516L24.9315 8.24516C24.9475 8.12959 24.9475 8.01234 24.9315 7.89677C24.9315 7.89677 24.9315 7.89677 24.9315 7.78065H24.8356C24.8218 7.72342 24.8218 7.66368 24.8356 7.60645C24.8356 7.60645 24.8356 7.60645 24.8356 7.4129C24.8356 7.21935 24.8356 7.12258 24.9507 6.85161L24.7973 7.04516V6.15484C24.7973 5.86452 24.7973 5.57419 24.7973 5.26452C24.7982 5.10852 24.7585 4.95501 24.6822 4.81935C24.6279 4.7059 24.5568 4.60147 24.4712 4.50968C24.4617 4.34207 24.4617 4.17405 24.4712 4.00645V3.83226L24.5671 3.61936C24.5838 3.54285 24.5838 3.46361 24.5671 3.3871C24.7491 3.20139 24.8868 2.97636 24.9699 2.72903C24.9719 2.49811 24.9329 2.26868 24.8548 2.05161L24.5671 1.49032C24.5776 1.41975 24.5776 1.34799 24.5671 1.27742V1.12258L25.9671 0.793549C26.0394 0.865018 26.0808 0.962412 26.0822 1.06452C26.0822 1.18065 26.0822 1.21935 26.1973 1.21935H26.3507H26.5233C26.6169 1.31003 26.7391 1.36481 26.8685 1.37419C26.975 1.40485 27.088 1.40485 27.1945 1.37419C27.2805 1.30678 27.3579 1.22875 27.4247 1.14194L28.0192 1.12258Z" />
    </mask>
    <path
      d="M28.0192 1.12258C28.0192 1.66452 28.0192 2.22581 28.0192 2.7871C28.0192 3.34839 28.0192 3.89032 28.0192 4.43226C27.8916 4.65586 27.8254 4.90974 27.8274 5.16774C27.8184 5.20592 27.8184 5.24569 27.8274 5.28387C27.8687 5.37726 27.9008 5.47449 27.9233 5.57419C27.9233 6.09677 27.9233 6.61936 27.9233 7.14194V8.69032C27.8282 8.88417 27.7696 9.0942 27.7507 9.30968C27.7322 9.52863 27.7322 9.74878 27.7507 9.96774C27.7507 10.2194 27.7507 10.471 27.7507 10.7226V11.671V12.329V13.8C27.7139 13.9782 27.7074 14.1615 27.7315 14.3419C27.7363 14.4257 27.7363 14.5097 27.7315 14.5935C27.7315 14.5935 27.7315 14.7097 27.5973 14.7097C27.5973 15.3484 27.5973 15.929 27.5973 16.4516C27.5973 16.9742 27.5973 17.4968 27.5973 18H27.463V18.271C27.3663 18.4223 27.3071 18.5949 27.2904 18.7742L27.1562 19.0065L27.2904 19.2C27.3243 19.3207 27.3831 19.4329 27.463 19.529C27.5274 19.615 27.6135 19.6818 27.7123 19.7226C27.7123 19.8387 27.7123 19.9548 27.7123 20.071C27.7123 20.1871 27.7123 20.2839 27.7123 20.4H24.5479V19.2C24.5479 18.7935 24.5479 18.4065 24.5479 18C24.5479 17.9032 24.663 17.8452 24.663 17.7871C24.7424 17.7164 24.7964 17.6211 24.8164 17.5161C24.8243 17.4324 24.8243 17.3482 24.8164 17.2645C24.8331 17.175 24.8331 17.0831 24.8164 16.9935C24.785 16.8815 24.7329 16.7765 24.663 16.6839V14.6516C24.663 14.2258 24.663 13.8 24.663 13.4323V12.7161C24.7445 12.6251 24.8094 12.5202 24.8548 12.4065V12C24.8768 11.9308 24.8768 11.8563 24.8548 11.7871C24.8654 11.7426 24.8654 11.6961 24.8548 11.6516C24.8418 11.5813 24.8418 11.5091 24.8548 11.4387L24.3178 11.6129L24.0685 11.7484C23.9792 11.814 23.9069 11.9003 23.8575 12H23.7425H23.6274H21.0384H20.2137H19.9452C19.7733 11.9012 19.5847 11.8355 19.389 11.8065L19.1589 11.671L18.8329 11.8839C18.8152 12.1352 18.8152 12.3874 18.8329 12.6387C18.8329 13.0258 18.8329 13.4516 18.8329 13.8774C18.8329 14.3032 18.8329 14.729 18.8329 15.0968C18.8329 15.4645 18.8329 15.7161 18.8329 15.7935C18.8022 15.9338 18.8022 16.0791 18.8329 16.2194C18.892 16.336 18.9627 16.4462 19.0438 16.5484V17.0516C19.0438 17.2065 19.0438 17.3806 19.0438 17.5355C18.9685 17.6371 18.9221 17.7576 18.9096 17.8839C18.819 18.1047 18.7733 18.3416 18.7753 18.5806C18.7727 18.8053 18.8117 19.0285 18.8904 19.2387C18.9812 19.432 19.0837 19.6194 19.1973 19.8V20.1484C19.188 20.2255 19.188 20.3035 19.1973 20.3806H18.1425C18.0764 20.3091 17.9888 20.2614 17.8932 20.2452H17.6247H17.4137C17.3527 20.1781 17.2786 20.1246 17.1961 20.088C17.1136 20.0513 17.0244 20.0324 16.9342 20.0323C16.8416 19.9965 16.7392 19.9965 16.6466 20.0323L16.4164 20.2258H15.726V16.9548C15.8021 16.8303 15.8541 16.6924 15.8795 16.5484C15.8881 16.4195 15.8881 16.2902 15.8795 16.1613V15.9677V15.8129V15.6581C15.8795 14.9742 15.8795 14.3935 15.8795 13.9161V12.5226C15.9758 12.3059 16.0466 12.0785 16.0904 11.8452C16.1094 11.6133 16.1094 11.3803 16.0904 11.1484V10.9548C16.0999 10.7808 16.0999 10.6063 16.0904 10.4323C16.1009 10.2647 16.1009 10.0966 16.0904 9.92903C16.0664 9.78745 16.0211 9.65039 15.9562 9.52258V9.09677C16.095 9.03129 16.2241 8.94661 16.3397 8.84516C16.4143 8.76302 16.4787 8.67203 16.5315 8.57419C16.564 8.44724 16.564 8.31405 16.5315 8.1871C16.5329 7.99842 16.4722 7.8146 16.3589 7.66452C16.2247 7.52903 16.2247 7.37419 16.0329 7.23871L15.8795 7.08387C15.8795 6.50323 15.8795 5.94194 15.8795 5.36129C15.8795 4.78065 15.8795 4.23871 15.8795 3.65806L16.0329 3.56129V3.29032C16.0437 3.20681 16.0437 3.12222 16.0329 3.03871V2.80645L16.2247 2.55484L15.937 2.1871L15.611 1.81936C15.611 1.81936 15.611 1.56774 15.611 1.35484C15.6226 1.1873 15.6226 1.01915 15.611 0.851614C16.189 0.850076 16.7662 0.895383 17.337 0.987097C17.8944 1.08161 18.4597 1.12051 19.0247 1.10323C19.0247 1.50968 19.0247 1.91613 19.0247 2.32258V3.54194C18.9497 3.60843 18.8963 3.69608 18.8712 3.79355C18.8712 3.90968 18.8712 4.00645 18.8712 4.08387C18.8648 4.12231 18.8648 4.16156 18.8712 4.2C18.8542 4.26992 18.8542 4.34298 18.8712 4.4129C18.8712 4.4129 18.8712 4.4129 18.8712 4.52903V4.62581C18.8888 4.72827 18.8888 4.83302 18.8712 4.93548V6.01935V6.13548V6.32903C18.8902 6.38551 18.8902 6.44674 18.8712 6.50323V6.69677C18.8712 6.79355 18.8712 6.89032 18.8712 6.94839C18.8712 6.94839 18.8712 7.04516 18.8712 7.14194C18.8712 7.31613 18.8712 7.54839 18.8712 7.83871C18.8712 8.12903 18.8712 8.45807 18.8712 8.80645C18.8712 9.15484 18.8712 9.13548 18.8712 9.11613C18.8712 9.09677 18.8712 9.11613 18.9863 8.98064L19.1206 8.80645C19.1206 8.80645 19.1206 8.80645 19.1206 9H19.6192L20.2904 8.72903C20.3636 8.81664 20.4474 8.89466 20.5397 8.96129C20.6499 9.02702 20.7761 9.06053 20.9041 9.05807H21.1726C21.3011 9.03237 21.4203 8.97219 21.5178 8.88387H21.9014H22.1507H22.4767H22.5918H22.937C23.0521 8.88387 23.1096 8.92258 23.1096 9C23.1096 9 23.1096 9 23.2055 9H23.3206H23.5507L23.7808 9.09677H23.9151C23.6338 9.09677 23.4995 9.09677 23.5123 9.09677C23.5123 9.09677 23.5123 9.19355 23.8 9.23226C24.0407 9.27927 24.2881 9.27927 24.5288 9.23226C24.868 9.18012 25.19 9.04745 25.4685 8.84516L24.9315 8.24516C24.9475 8.12959 24.9475 8.01234 24.9315 7.89677C24.9315 7.89677 24.9315 7.89677 24.9315 7.78065H24.8356C24.8218 7.72342 24.8218 7.66368 24.8356 7.60645C24.8356 7.60645 24.8356 7.60645 24.8356 7.4129C24.8356 7.21935 24.8356 7.12258 24.9507 6.85161L24.7973 7.04516V6.15484C24.7973 5.86452 24.7973 5.57419 24.7973 5.26452C24.7982 5.10852 24.7585 4.95501 24.6822 4.81935C24.6279 4.7059 24.5568 4.60147 24.4712 4.50968C24.4617 4.34207 24.4617 4.17405 24.4712 4.00645V3.83226L24.5671 3.61936C24.5838 3.54285 24.5838 3.46361 24.5671 3.3871C24.7491 3.20139 24.8868 2.97636 24.9699 2.72903C24.9719 2.49811 24.9329 2.26868 24.8548 2.05161L24.5671 1.49032C24.5776 1.41975 24.5776 1.34799 24.5671 1.27742V1.12258L25.9671 0.793549C26.0394 0.865018 26.0808 0.962412 26.0822 1.06452C26.0822 1.18065 26.0822 1.21935 26.1973 1.21935H26.3507H26.5233C26.6169 1.31003 26.7391 1.36481 26.8685 1.37419C26.975 1.40485 27.088 1.40485 27.1945 1.37419C27.2805 1.30678 27.3579 1.22875 27.4247 1.14194L28.0192 1.12258Z"
      fill="url(#paint2_linear_1_3)" stroke="url(#paint3_linear_1_3)" stroke-width="0.6"
      mask="url(#path-2-inside-2_1_3)" />
  </g>
  <defs>
    <linearGradient id="paint0_linear_1_3" x1="6.32876" y1="0.0386963" x2="6.32876" y2="20.9419"
      gradientUnits="userSpaceOnUse">
      <stop stop-color="#DC7E34" />
      <stop offset="1" stop-color="#292325" />
    </linearGradient>
    <linearGradient id="paint1_linear_1_3" x1="6.51569" y1="22.1147" x2="6.51569" y2="0.791872"
      gradientUnits="userSpaceOnUse">
      <stop stop-color="#FF4206" />
      <stop offset="1" stop-color="#FFBD14" />
    </linearGradient>
    <linearGradient id="paint2_linear_1_3" x1="21.8151" y1="0.793549" x2="21.8151" y2="20.4"
      gradientUnits="userSpaceOnUse">
      <stop stop-color="#DC7E34" />
      <stop offset="1" stop-color="#292325" />
    </linearGradient>
    <linearGradient id="paint3_linear_1_3" x1="22" y1="21.5" x2="22" y2="1.5" gradientUnits="userSpaceOnUse">
      <stop stop-color="#FF4206" />
      <stop offset="1" stop-color="#FFBD14" />
    </linearGradient>
  </defs>
</svg>